<svg id="svg" version="1.1" xmlns="http://www.w3.org/2000/svg" xmlns:xlink="http://www.w3.org/1999/xlink" width="400" height="400" viewBox="0, 0, 400,400"><g id="svgg"><path id="path0" d="M200.000 61.879 C 196.450 62.155,191.668 62.769,183.600 63.988 C 179.090 64.669,172.700 65.571,169.400 65.993 C 152.594 68.140,149.378 69.087,144.535 73.318 C 141.217 76.218,136.190 78.988,130.560 81.021 C 125.170 82.967,123.835 83.824,120.536 87.465 C 118.839 89.338,116.749 91.146,115.347 91.956 C 110.075 95.000,107.797 96.776,106.200 99.086 C 105.320 100.359,102.428 103.560,99.774 106.200 C 95.894 110.059,94.647 111.588,93.417 114.000 C 91.472 117.811,88.997 121.278,86.492 123.700 C 85.095 125.050,83.941 126.799,82.502 129.743 C 81.389 132.022,79.716 135.127,78.784 136.643 C 74.985 142.828,68.699 161.550,66.423 173.456 L 65.189 179.912 65.151 194.856 C 65.086 219.722,65.883 224.040,74.516 245.600 C 75.265 247.470,76.743 251.430,77.801 254.400 C 79.729 259.809,80.231 260.741,84.316 266.487 C 85.947 268.783,86.858 269.689,87.866 270.022 C 88.897 270.362,89.460 270.939,90.217 272.433 C 90.764 273.514,92.440 276.333,93.939 278.699 C 95.439 281.064,97.177 283.948,97.801 285.107 C 100.552 290.219,101.990 287.624,101.997 277.533 C 102.002 270.741,100.748 268.660,96.351 268.163 C 92.636 267.742,92.424 267.341,91.560 259.114 C 90.063 244.862,89.488 231.821,89.736 217.800 C 90.226 190.178,92.046 180.714,98.132 174.143 C 100.809 171.251,101.696 169.401,103.260 163.438 C 105.376 155.373,106.988 152.761,113.750 146.439 C 115.133 145.146,118.000 140.099,118.000 138.957 C 118.000 136.564,121.905 131.467,124.883 129.971 C 127.426 128.695,128.328 127.701,129.765 124.592 C 131.650 120.514,133.125 119.042,137.363 117.007 C 141.506 115.019,142.357 114.242,143.603 111.309 C 145.006 108.005,148.569 105.139,152.637 104.044 C 155.055 103.393,159.043 100.665,159.833 99.123 C 162.305 94.291,167.166 91.551,176.629 89.653 C 183.122 88.352,184.776 87.571,187.415 84.566 C 193.034 78.166,203.177 76.426,234.779 76.441 C 249.054 76.447,251.933 76.298,255.949 75.344 C 262.149 73.871,262.026 73.553,253.728 69.634 C 244.843 65.438,238.551 63.986,224.983 63.003 C 220.312 62.665,214.716 62.215,212.546 62.004 C 208.750 61.635,203.786 61.586,200.000 61.879 M272.800 85.386 C 272.800 86.954,275.904 87.881,277.588 86.816 C 278.308 86.360,278.293 86.347,275.726 85.270 C 273.097 84.167,272.800 84.179,272.800 85.386 M208.400 121.600 C 195.883 122.329,184.514 125.284,178.518 129.367 C 175.426 131.473,169.923 134.417,168.000 134.995 C 163.979 136.203,148.031 150.569,145.161 155.568 C 144.476 156.761,143.055 158.651,142.002 159.768 C 139.267 162.670,137.747 165.479,135.737 171.345 C 134.767 174.175,133.697 177.145,133.359 177.945 C 129.215 187.755,128.548 210.332,132.069 221.600 C 132.516 223.030,133.477 226.450,134.205 229.200 C 134.933 231.950,135.987 235.289,136.548 236.619 C 137.108 237.950,137.953 240.650,138.426 242.619 C 139.540 247.257,139.785 247.732,141.600 248.752 C 144.606 250.442,148.382 255.263,149.389 258.698 C 149.976 260.699,154.209 264.800,155.687 264.800 C 156.842 264.800,162.944 268.146,165.200 270.016 C 168.471 272.728,168.437 272.694,169.685 274.538 C 170.778 276.153,172.587 277.542,174.600 278.311 C 179.740 280.273,216.345 281.557,224.200 280.051 C 225.300 279.840,228.090 279.446,230.400 279.176 C 236.957 278.409,241.859 276.335,242.595 274.015 C 243.311 271.759,251.290 266.746,256.995 264.967 C 261.322 263.618,262.444 262.688,264.382 258.845 C 266.265 255.113,268.196 253.125,271.623 251.393 C 274.479 249.950,277.026 247.463,277.445 245.710 C 279.434 237.390,280.066 236.040,283.826 232.079 C 286.868 228.876,288.452 226.166,290.002 221.517 C 291.495 217.038,290.654 185.246,288.813 176.600 C 288.392 174.620,287.753 171.475,287.393 169.610 C 286.616 165.581,286.719 165.786,284.151 163.117 C 281.943 160.822,280.899 159.016,279.805 155.600 C 279.417 154.390,278.785 153.040,278.399 152.600 C 276.826 150.803,275.469 148.105,274.221 144.292 L 272.904 140.264 269.952 139.337 C 266.174 138.152,263.945 137.004,261.864 135.173 C 260.949 134.368,258.940 133.070,257.400 132.288 C 255.860 131.505,253.504 129.975,252.164 128.886 C 249.674 126.862,247.636 126.003,243.400 125.192 C 242.080 124.939,239.216 124.287,237.036 123.743 C 228.798 121.687,219.215 120.970,208.400 121.600 M325.010 243.013 C 322.920 247.452,322.739 249.852,324.295 252.516 C 325.848 255.176,327.463 253.957,329.194 248.819 L 329.984 246.473 329.061 243.937 C 328.553 242.541,327.856 240.866,327.512 240.213 L 326.887 239.027 325.010 243.013 M311.174 257.891 C 309.943 259.260,309.216 260.526,308.857 261.929 C 307.671 266.557,304.828 268.589,298.651 269.226 C 292.837 269.826,288.710 270.415,287.200 270.860 C 283.576 271.927,282.869 272.175,281.000 273.029 C 279.900 273.531,277.671 274.410,276.047 274.982 C 274.423 275.553,272.623 276.354,272.047 276.761 C 269.318 278.690,261.899 281.968,257.071 283.379 C 255.438 283.856,254.302 284.512,253.270 285.575 C 248.392 290.602,239.937 292.670,226.200 292.197 C 203.496 291.416,192.930 291.877,182.200 294.119 C 179.476 294.688,178.402 296.038,178.401 298.891 C 178.400 300.807,179.142 301.290,183.750 302.374 C 185.703 302.833,188.403 303.672,189.750 304.238 C 191.098 304.805,193.537 305.800,195.171 306.451 C 198.669 307.845,200.564 309.161,202.602 311.610 C 204.736 314.175,205.654 314.621,210.800 315.589 C 220.657 317.443,227.945 319.465,230.862 321.153 C 233.613 322.746,233.643 322.753,239.984 323.223 L 246.345 323.695 249.673 322.277 C 251.503 321.497,254.710 320.398,256.800 319.834 C 268.683 316.627,273.880 314.414,275.460 311.890 C 277.490 308.648,279.806 306.943,285.000 304.867 C 288.612 303.424,291.643 301.068,292.797 298.805 C 293.770 296.898,296.851 293.798,298.748 292.816 C 301.398 291.444,304.567 287.925,305.606 285.200 C 306.688 282.360,308.861 279.620,311.622 277.612 C 314.932 275.204,315.273 274.717,316.791 270.227 C 317.442 268.300,318.791 265.191,319.787 263.317 C 322.585 258.058,321.794 256.502,316.125 256.114 L 312.967 255.897 311.174 257.891 M111.300 298.777 C 110.082 299.793,110.165 300.415,111.719 301.922 C 112.840 303.008,114.000 303.581,114.000 303.049 C 114.000 302.966,114.265 302.264,114.589 301.489 C 115.643 298.966,113.345 297.072,111.300 298.777 " stroke="none" fill="#bde1d7" fill-rule="evenodd"></path><path id="path1" d="M0.000 200.000 L 0.000 400.000 200.000 400.000 L 400.000 400.000 400.000 200.000 L 400.000 0.000 200.000 0.000 L 0.000 0.000 0.000 200.000 M199.800 44.794 C 205.844 45.058,208.985 45.373,211.000 45.920 C 212.540 46.337,215.060 46.905,216.600 47.182 C 218.140 47.458,221.380 48.283,223.800 49.015 C 229.158 50.636,231.753 51.204,242.800 53.168 C 252.794 54.945,254.617 55.634,256.383 58.300 C 257.571 60.093,259.162 61.111,261.800 61.764 C 263.694 62.233,269.037 64.673,271.319 66.111 C 272.463 66.832,274.415 67.735,275.657 68.118 C 278.184 68.897,278.722 69.388,279.636 71.754 C 280.741 74.615,285.389 76.768,290.497 76.786 C 297.387 76.811,298.400 75.861,298.400 69.382 C 298.400 65.832,298.500 65.233,299.200 64.600 C 299.924 63.944,300.000 63.939,300.000 64.543 C 300.000 65.352,300.720 66.661,301.800 67.816 C 302.647 68.722,307.728 70.000,310.483 70.000 C 313.410 70.000,316.458 72.307,317.030 74.957 C 317.368 76.520,319.103 80.000,319.545 80.000 C 319.727 80.000,320.399 80.468,321.038 81.041 C 321.677 81.614,323.300 82.594,324.644 83.219 C 327.370 84.488,329.600 86.193,329.600 87.007 C 329.600 87.302,329.831 87.781,330.113 88.071 C 330.729 88.705,332.800 92.899,332.800 93.511 C 332.800 93.749,333.051 94.194,333.357 94.500 C 333.663 94.806,334.403 96.034,335.000 97.228 C 336.395 100.018,337.771 101.467,339.566 102.037 C 343.017 103.132,345.947 107.118,348.214 113.800 C 350.012 119.101,351.774 122.255,354.599 125.226 C 357.479 128.255,359.389 131.355,360.602 134.969 C 361.618 137.994,361.819 139.197,362.981 149.167 C 363.832 156.465,364.883 160.286,367.404 165.252 C 368.592 167.590,369.452 169.615,369.315 169.752 C 369.178 169.888,369.254 170.000,369.483 170.000 C 369.713 170.000,370.035 170.585,370.201 171.300 C 370.367 172.015,370.550 172.780,370.608 173.000 C 372.598 180.487,373.178 186.416,373.190 199.400 C 373.202 211.664,371.780 218.844,367.526 228.000 C 366.861 229.430,366.135 231.050,365.912 231.600 C 365.689 232.150,365.348 232.913,365.153 233.295 C 364.959 233.677,364.800 234.180,364.800 234.414 C 364.800 234.648,364.440 235.584,364.000 236.494 C 363.560 237.405,363.200 238.620,363.200 239.195 C 363.200 239.770,363.041 240.411,362.847 240.620 C 362.653 240.829,361.917 243.970,361.213 247.600 C 358.666 260.723,357.990 262.385,353.410 266.800 C 351.293 268.841,348.400 272.750,348.400 273.570 C 348.400 273.766,347.860 275.129,347.200 276.600 C 346.540 278.071,346.000 279.506,346.000 279.788 C 346.000 280.071,345.730 280.526,345.400 280.800 C 345.070 281.074,344.800 281.636,344.800 282.049 C 344.800 282.462,344.620 282.800,344.400 282.800 C 344.180 282.800,344.000 283.089,344.000 283.442 C 344.000 284.323,342.001 286.851,338.611 290.255 C 336.383 292.493,335.269 294.072,333.460 297.553 C 330.623 303.013,329.994 303.773,325.784 306.812 C 323.226 308.658,321.854 310.031,319.996 312.605 C 317.613 315.907,315.199 318.202,313.200 319.066 C 307.981 321.323,306.355 322.428,302.400 326.403 C 300.970 327.841,299.350 329.223,298.800 329.475 C 298.250 329.727,296.398 330.578,294.685 331.367 C 292.971 332.155,291.435 332.800,291.270 332.800 C 289.695 332.800,282.117 336.760,280.000 338.689 C 277.851 340.647,276.148 341.999,275.831 342.000 C 275.629 342.000,275.179 342.239,274.831 342.532 C 273.469 343.680,268.611 345.035,261.800 346.167 C 252.689 347.681,246.506 348.944,245.000 349.601 C 244.120 349.984,242.417 350.618,241.215 351.009 C 240.014 351.400,238.179 352.223,237.137 352.837 C 231.976 355.880,214.855 358.572,205.044 357.882 C 197.005 357.317,187.113 355.410,184.076 353.839 C 183.469 353.525,182.259 353.139,181.386 352.982 C 180.514 352.824,179.508 352.544,179.150 352.360 C 177.459 351.490,170.820 349.863,165.400 348.992 C 154.897 347.303,154.270 347.173,151.610 346.126 C 148.823 345.029,145.089 342.487,144.414 341.227 C 143.861 340.193,140.487 338.315,136.600 336.877 C 133.821 335.849,129.306 333.769,126.545 332.243 C 124.405 331.061,122.241 329.324,121.440 328.144 C 120.443 326.677,116.929 323.997,113.400 322.012 C 108.910 319.486,107.552 318.350,105.801 315.655 C 103.890 312.714,99.770 308.000,99.110 308.000 C 98.165 308.000,94.501 304.350,93.432 302.344 C 92.136 299.913,86.948 292.800,86.471 292.800 C 85.645 292.800,82.547 289.081,81.140 286.400 C 80.274 284.750,78.927 282.320,78.146 281.000 C 77.365 279.680,76.158 277.538,75.463 276.241 C 74.768 274.943,73.170 272.832,71.911 271.549 C 69.420 269.011,67.987 266.513,67.237 263.400 C 66.610 260.794,60.591 242.304,60.027 241.251 C 59.789 240.805,59.107 240.206,58.512 239.920 C 54.129 237.812,52.938 231.006,52.400 205.000 C 52.191 194.880,51.819 184.800,51.574 182.600 C 50.682 174.598,51.458 163.200,52.896 163.200 C 53.063 163.200,53.200 162.964,53.200 162.675 C 53.200 161.448,55.977 159.660,58.851 159.037 C 59.769 158.838,60.030 158.391,60.913 155.505 C 61.806 152.583,62.253 149.966,63.629 139.600 C 63.819 138.170,63.980 135.875,63.987 134.500 C 63.994 133.109,64.177 132.000,64.400 132.000 C 64.620 132.000,64.800 131.758,64.800 131.462 C 64.800 130.243,66.181 129.682,69.542 129.535 C 74.000 129.342,74.580 128.698,74.987 123.495 C 75.630 115.274,79.073 109.600,83.418 109.600 C 84.878 109.600,86.539 108.075,87.580 105.780 C 88.205 104.401,89.456 102.471,90.359 101.491 C 91.690 100.046,92.001 99.417,92.004 98.155 C 92.011 95.661,92.465 93.600,93.006 93.600 C 93.281 93.600,93.597 93.254,93.708 92.831 C 93.909 92.061,96.385 90.716,98.614 90.166 C 99.266 90.005,100.366 89.445,101.057 88.922 C 101.748 88.399,103.254 87.640,104.403 87.235 C 106.766 86.403,107.185 85.935,107.194 84.124 C 107.197 83.422,107.380 82.736,107.600 82.600 C 107.820 82.464,108.000 81.994,108.000 81.554 C 108.000 80.501,109.396 77.467,110.180 76.816 C 110.521 76.534,110.800 76.111,110.800 75.877 C 110.800 74.225,112.924 73.324,114.713 74.216 C 116.964 75.340,126.228 75.508,128.276 74.463 C 130.366 73.397,130.374 73.383,130.534 70.437 C 130.607 69.096,130.787 67.880,130.934 67.733 C 131.080 67.587,131.200 66.507,131.200 65.333 C 131.200 64.160,131.380 63.200,131.600 63.200 C 131.820 63.200,132.000 62.961,132.000 62.670 C 132.000 61.465,133.891 60.355,136.597 59.972 C 138.079 59.762,139.459 59.487,139.664 59.361 C 139.868 59.234,140.252 59.304,140.518 59.515 C 141.914 60.626,152.634 61.295,156.600 60.518 C 160.222 59.809,160.800 59.486,160.800 58.175 C 160.800 57.665,160.980 57.136,161.200 57.000 C 161.420 56.864,161.600 56.330,161.600 55.814 C 161.600 54.773,163.162 51.600,163.674 51.600 C 163.853 51.600,164.000 51.357,164.000 51.059 C 164.000 50.762,164.540 49.954,165.200 49.263 C 165.860 48.572,166.400 47.840,166.400 47.635 C 166.400 47.133,168.414 46.518,171.768 45.995 C 173.291 45.757,174.697 45.464,174.893 45.342 C 175.216 45.143,184.425 44.592,189.400 44.475 C 190.500 44.449,195.180 44.593,199.800 44.794 M274.184 46.139 C 275.506 47.106,273.707 48.483,271.935 47.862 C 269.413 46.977,269.247 46.673,271.000 46.144 C 273.112 45.507,273.319 45.507,274.184 46.139 M289.900 57.426 C 290.615 57.572,291.200 57.850,291.200 58.045 C 291.200 58.240,291.449 58.400,291.754 58.400 C 292.555 58.400,296.511 59.672,297.100 60.119 C 298.248 60.989,297.401 63.200,295.920 63.200 C 295.524 63.200,295.200 63.380,295.200 63.600 C 295.200 64.703,286.201 64.053,285.065 62.868 C 283.267 60.991,283.364 59.218,285.361 57.468 C 286.195 56.737,286.498 56.734,289.900 57.426 M299.647 79.100 C 299.673 79.265,299.659 79.490,299.615 79.600 C 299.525 79.824,299.401 80.762,299.022 84.064 C 298.791 86.079,298.855 86.393,299.610 86.922 C 300.439 87.502,300.725 87.474,303.316 86.553 C 304.067 86.286,304.020 85.330,303.264 85.495 C 303.025 85.548,302.932 85.320,303.059 84.990 C 303.186 84.660,303.107 84.167,302.883 83.895 C 302.660 83.623,302.414 82.950,302.338 82.400 C 302.262 81.850,301.945 81.400,301.633 81.400 C 301.322 81.400,300.983 81.150,300.881 80.844 C 300.769 80.507,300.874 80.398,301.148 80.568 C 301.877 81.019,301.666 80.184,300.869 79.462 C 300.092 78.759,299.569 78.604,299.647 79.100 M61.900 125.698 C 62.776 126.399,62.471 127.764,61.317 128.300 C 59.873 128.971,59.798 128.952,59.274 127.802 C 58.244 125.542,59.973 124.157,61.900 125.698 M299.440 172.800 C 299.565 173.790,300.188 176.400,300.824 178.600 C 301.460 180.800,302.088 183.230,302.221 184.000 C 302.944 188.205,303.153 188.440,302.935 184.800 C 302.673 180.430,301.645 175.999,300.209 173.049 L 299.212 171.000 299.440 172.800 M147.600 271.816 C 147.600 273.415,153.157 280.097,153.185 278.531 C 153.239 275.425,152.317 273.619,150.155 272.596 C 147.975 271.565,147.600 271.450,147.600 271.816 " stroke="none" fill="#cf691f" fill-rule="evenodd"></path><path id="path2" d="M250.318 76.216 C 250.199 76.334,243.644 76.433,235.751 76.434 C 203.005 76.441,193.083 78.110,187.415 84.566 C 184.776 87.571,183.122 88.352,176.629 89.653 C 167.166 91.551,162.305 94.291,159.833 99.123 C 159.043 100.665,155.055 103.393,152.637 104.044 C 148.569 105.139,145.006 108.005,143.603 111.309 C 142.357 114.242,141.506 115.019,137.363 117.007 C 133.125 119.042,131.650 120.514,129.765 124.592 C 128.328 127.701,127.426 128.695,124.883 129.971 C 121.905 131.467,118.000 136.564,118.000 138.957 C 118.000 140.099,115.133 145.146,113.750 146.439 C 106.988 152.761,105.376 155.373,103.260 163.438 C 101.696 169.401,100.809 171.251,98.132 174.143 C 92.079 180.679,90.248 190.108,89.732 217.400 C 89.500 229.656,89.801 239.004,90.831 251.600 C 91.281 257.098,91.919 259.111,94.391 262.833 C 95.207 264.062,96.274 265.772,96.762 266.633 C 97.250 267.495,98.224 268.470,98.925 268.800 C 100.358 269.474,101.957 272.275,101.984 274.157 C 102.001 275.393,105.256 281.807,108.184 286.376 C 109.164 287.904,112.088 291.405,114.683 294.156 C 117.277 296.907,120.840 300.880,122.600 302.986 C 124.360 305.092,126.449 307.306,127.242 307.907 C 128.577 308.919,131.313 311.293,135.992 315.500 C 137.032 316.435,138.016 317.200,138.178 317.200 C 138.340 317.200,139.208 317.829,140.106 318.598 C 141.005 319.367,142.473 320.366,143.370 320.818 C 144.266 321.270,146.097 322.322,147.437 323.157 C 148.778 323.992,150.938 325.217,152.237 325.880 C 153.537 326.542,155.320 327.459,156.200 327.918 C 160.659 330.242,165.380 332.231,171.661 334.433 C 181.213 337.782,182.769 338.254,185.288 338.569 C 186.495 338.719,188.283 339.084,189.263 339.379 C 190.242 339.673,193.104 340.121,195.622 340.373 C 198.140 340.626,201.910 341.009,204.000 341.225 C 208.963 341.738,223.532 341.729,226.600 341.210 C 227.920 340.987,229.782 340.804,230.738 340.802 C 232.495 340.800,236.415 339.887,237.695 339.183 C 238.077 338.972,238.707 338.799,239.095 338.799 C 239.483 338.798,240.389 338.438,241.110 337.999 C 241.830 337.559,242.730 337.197,243.110 337.194 C 243.489 337.191,244.565 336.922,245.500 336.596 C 248.454 335.567,252.888 334.485,256.200 333.985 C 257.960 333.719,261.883 332.894,264.918 332.151 C 267.953 331.408,270.833 330.798,271.318 330.796 C 271.803 330.795,273.505 330.114,275.099 329.283 C 277.746 327.905,278.898 327.090,282.089 324.339 C 282.688 323.823,284.848 322.536,286.889 321.479 C 288.930 320.423,291.140 319.210,291.800 318.784 C 292.460 318.358,293.270 317.872,293.600 317.705 C 295.881 316.546,300.151 313.310,302.000 311.339 C 303.210 310.048,305.190 308.184,306.400 307.196 C 307.610 306.208,308.660 305.265,308.733 305.100 C 308.807 304.935,309.127 304.800,309.446 304.800 C 309.764 304.800,310.129 304.530,310.255 304.200 C 310.382 303.870,310.711 303.600,310.986 303.600 C 311.819 303.600,315.234 300.356,316.660 298.212 C 319.485 293.965,320.260 293.008,324.290 288.800 C 327.950 284.977,331.411 279.543,335.174 271.710 C 336.255 269.460,338.232 266.114,339.568 264.275 C 340.904 262.437,342.338 259.957,342.754 258.766 C 343.170 257.575,343.899 255.610,344.373 254.400 C 346.381 249.284,347.532 245.565,348.213 241.997 C 348.612 239.909,349.051 238.110,349.188 238.000 C 349.428 237.808,349.879 235.550,350.847 229.700 C 351.092 228.215,351.644 225.290,352.073 223.200 C 353.094 218.220,353.506 204.287,352.820 197.885 C 352.341 193.414,352.098 192.167,350.893 188.000 C 350.544 186.790,350.204 185.440,350.139 185.000 C 349.759 182.421,349.521 181.388,348.390 177.400 C 347.225 173.295,346.804 171.502,346.182 168.000 C 346.045 167.230,345.678 166.033,345.366 165.340 C 345.055 164.646,344.800 163.871,344.800 163.616 C 344.800 163.206,343.943 161.294,340.848 154.800 C 340.376 153.810,339.374 152.190,338.622 151.200 C 337.869 150.210,337.241 149.279,337.227 149.132 C 337.212 148.984,336.255 147.454,335.100 145.731 C 332.601 142.002,332.127 141.255,331.593 140.200 C 330.812 138.656,328.510 135.347,327.142 133.800 C 326.559 133.140,324.923 130.873,323.508 128.761 C 320.866 124.821,319.130 122.419,317.901 121.004 C 317.517 120.562,315.987 118.764,314.501 117.010 C 311.735 113.743,308.679 110.575,306.580 108.800 C 305.929 108.250,304.319 106.900,303.001 105.800 C 301.684 104.700,300.401 103.620,300.152 103.400 C 299.902 103.180,299.283 102.730,298.775 102.400 C 298.267 102.070,297.120 101.154,296.226 100.364 C 294.047 98.441,290.725 96.263,285.295 93.202 C 282.817 91.804,279.877 89.882,278.762 88.930 C 277.355 87.729,276.370 87.200,275.541 87.200 C 273.860 87.200,272.800 86.527,272.800 85.459 C 272.800 84.737,272.321 84.328,270.500 83.497 C 269.235 82.920,266.400 81.612,264.200 80.591 C 257.038 77.268,251.128 75.406,250.318 76.216 M235.200 82.416 C 244.746 82.816,251.125 83.493,255.600 84.582 C 256.810 84.876,258.290 85.227,258.888 85.363 C 259.487 85.498,260.645 86.332,261.463 87.216 C 263.787 89.728,267.355 91.712,272.963 93.612 C 278.548 95.505,281.287 97.083,284.800 100.432 C 287.553 103.057,290.459 104.954,296.143 107.836 C 300.731 110.162,303.214 112.105,304.272 114.200 C 304.606 114.860,306.256 117.727,307.939 120.572 C 310.860 125.507,311.603 126.429,315.751 130.267 C 318.022 132.369,319.180 134.653,320.780 140.193 C 323.117 148.282,325.610 153.571,327.563 154.581 C 330.356 156.025,332.677 160.042,333.700 165.200 C 334.516 169.317,334.338 207.905,333.483 212.200 C 332.008 219.613,331.311 220.953,327.473 223.764 C 325.400 225.282,323.901 227.450,322.388 231.120 C 318.330 240.960,315.746 244.328,310.220 246.980 C 305.884 249.061,302.753 252.092,301.175 255.735 C 300.639 256.973,300.013 257.989,299.785 257.993 C 299.224 258.002,296.056 252.657,295.192 250.245 C 294.964 249.609,294.696 249.171,294.596 249.270 C 294.419 249.448,293.393 254.433,292.965 257.200 C 292.756 258.552,292.458 260.171,292.265 261.000 C 292.214 261.220,291.863 262.013,291.486 262.761 C 291.109 263.510,290.800 264.350,290.800 264.628 C 290.800 264.906,290.665 265.193,290.500 265.267 C 290.335 265.340,289.689 266.153,289.064 267.073 C 288.440 267.993,287.316 269.163,286.567 269.673 C 285.818 270.183,285.204 270.755,285.203 270.945 C 285.200 271.290,285.799 271.214,289.200 270.439 C 290.190 270.213,293.160 269.833,295.800 269.594 C 304.487 268.807,307.292 267.232,308.693 262.351 C 309.196 260.596,309.913 259.313,311.183 257.892 L 312.967 255.897 316.125 256.114 C 321.794 256.502,322.585 258.058,319.787 263.317 C 318.791 265.191,317.442 268.300,316.791 270.227 C 315.273 274.717,314.932 275.204,311.622 277.612 C 308.861 279.620,306.688 282.360,305.606 285.200 C 304.567 287.925,301.398 291.444,298.748 292.816 C 296.851 293.798,293.770 296.898,292.797 298.805 C 291.643 301.068,288.612 303.424,285.000 304.867 C 279.806 306.943,277.490 308.648,275.460 311.890 C 273.880 314.414,268.683 316.627,256.800 319.834 C 254.710 320.398,251.503 321.497,249.673 322.277 L 246.345 323.695 239.984 323.223 C 233.643 322.753,233.613 322.746,230.862 321.153 C 227.945 319.465,220.657 317.443,210.800 315.589 C 205.654 314.621,204.736 314.175,202.602 311.610 C 200.564 309.161,198.669 307.845,195.171 306.451 C 193.537 305.800,191.098 304.805,189.750 304.238 C 188.403 303.672,185.703 302.833,183.750 302.374 C 178.779 301.205,178.259 300.811,178.491 298.394 L 178.676 296.469 176.438 295.368 C 174.032 294.185,171.390 293.137,168.200 292.101 C 164.806 290.998,161.324 288.165,159.436 284.969 C 158.824 283.934,156.412 281.854,156.140 282.127 C 156.082 282.184,156.636 283.484,157.371 285.016 C 158.926 288.259,161.669 290.982,166.571 294.151 C 169.431 295.999,169.938 296.528,171.732 299.542 C 174.095 303.511,176.728 305.775,180.878 307.403 C 186.828 309.737,189.631 311.688,193.086 315.899 C 194.759 317.938,198.475 319.788,203.000 320.834 C 210.202 322.499,219.199 325.504,220.388 326.642 C 222.123 328.302,213.970 333.097,208.087 333.877 C 204.803 334.312,192.320 333.241,188.400 332.188 C 184.915 331.252,183.101 330.460,176.200 326.863 C 174.880 326.175,171.460 324.981,168.600 324.210 C 165.740 323.439,160.970 322.159,158.000 321.366 C 151.910 319.738,149.162 318.364,146.697 315.713 C 143.058 311.799,141.324 310.276,139.400 309.303 C 138.300 308.747,136.590 307.750,135.600 307.087 C 133.098 305.412,120.429 292.482,117.700 288.818 C 116.463 287.158,114.360 284.628,113.026 283.196 C 110.187 280.149,108.392 276.711,107.209 272.053 C 105.749 266.305,104.079 262.676,99.950 256.277 C 91.831 243.696,92.509 194.385,100.917 185.977 C 104.342 182.552,106.541 177.376,107.726 169.949 C 108.731 163.647,111.900 158.001,114.911 157.146 C 118.994 155.986,121.831 151.436,123.138 143.954 C 124.019 138.908,125.159 137.053,127.800 136.369 C 131.001 135.540,131.898 135.160,132.722 134.283 C 133.836 133.098,134.660 131.050,135.009 128.600 C 135.381 125.989,138.882 122.295,141.425 121.828 C 145.405 121.099,147.293 119.422,148.807 115.270 C 150.049 111.861,152.244 109.912,155.653 109.189 C 160.399 108.182,163.872 106.113,167.548 102.105 C 171.271 98.044,175.180 95.726,180.286 94.550 C 191.603 91.943,195.070 90.716,199.320 87.817 C 206.375 83.004,215.707 81.599,235.200 82.416 M209.400 108.404 C 197.807 109.213,183.790 113.182,173.600 118.544 C 169.750 120.569,165.970 122.481,165.200 122.791 C 163.152 123.617,162.155 124.239,156.855 128.000 C 154.220 129.870,151.301 131.850,150.370 132.400 C 145.133 135.492,134.328 147.114,132.738 151.365 C 131.782 153.923,127.228 162.051,125.996 163.400 C 121.942 167.838,117.647 195.907,119.141 208.200 C 119.382 210.180,119.760 213.746,119.981 216.125 C 120.525 221.956,122.711 233.024,123.710 235.000 C 124.154 235.880,125.371 237.860,126.413 239.400 C 127.455 240.940,130.264 246.160,132.654 251.000 L 137.000 259.800 141.673 264.634 C 146.078 269.191,146.361 269.410,146.601 268.455 C 146.925 267.161,148.521 265.676,149.917 265.367 C 150.513 265.236,151.558 264.959,152.239 264.753 C 152.920 264.547,153.805 264.504,154.205 264.657 C 154.705 264.849,154.841 264.791,154.642 264.468 C 154.483 264.211,154.138 264.000,153.876 264.000 C 153.194 264.000,149.960 260.135,149.401 258.652 C 148.238 255.565,147.470 254.305,145.367 252.034 C 144.131 250.698,142.435 249.221,141.600 248.752 C 139.785 247.732,139.540 247.257,138.426 242.619 C 137.953 240.650,137.108 237.950,136.548 236.619 C 135.987 235.289,134.933 231.950,134.205 229.200 C 133.477 226.450,132.516 223.030,132.069 221.600 C 128.548 210.332,129.215 187.755,133.359 177.945 C 133.697 177.145,134.767 174.175,135.737 171.345 C 137.747 165.479,139.267 162.670,142.002 159.768 C 143.055 158.651,144.476 156.761,145.161 155.568 C 148.031 150.569,163.979 136.203,168.000 134.995 C 169.923 134.417,175.426 131.473,178.518 129.367 C 189.787 121.694,217.972 118.985,237.037 123.743 C 239.217 124.287,242.080 124.939,243.400 125.192 C 247.636 126.003,249.674 126.862,252.164 128.886 C 253.504 129.975,255.860 131.505,257.400 132.288 C 258.940 133.070,260.949 134.368,261.864 135.173 C 263.945 137.004,266.174 138.152,269.952 139.337 L 272.904 140.264 274.221 144.292 C 275.469 148.105,276.826 150.803,278.399 152.600 C 278.785 153.040,279.417 154.390,279.805 155.600 C 280.899 159.016,281.943 160.822,284.151 163.117 C 286.719 165.786,286.616 165.581,287.393 169.610 C 287.753 171.475,288.392 174.620,288.813 176.600 C 289.795 181.212,290.403 190.426,290.681 204.892 C 290.803 211.277,291.057 216.289,291.251 216.169 C 291.443 216.050,291.600 215.345,291.600 214.603 C 291.600 213.860,291.874 211.951,292.208 210.361 C 292.965 206.764,293.078 205.085,293.422 192.400 C 293.665 183.416,294.186 177.121,294.942 174.041 C 295.407 172.144,296.103 170.193,296.448 169.820 C 296.642 169.611,296.800 169.037,296.800 168.544 C 296.800 168.051,296.966 167.544,297.170 167.419 C 297.376 167.291,297.124 166.166,296.598 164.872 C 296.080 163.596,294.923 160.429,294.028 157.833 C 291.907 151.683,290.369 148.865,287.312 145.534 C 285.936 144.034,283.807 141.284,282.581 139.423 C 280.025 135.543,276.823 132.188,273.553 129.968 C 272.304 129.120,270.049 127.244,268.542 125.798 C 265.088 122.487,263.124 121.172,259.267 119.586 C 257.580 118.892,253.230 116.921,249.600 115.206 C 236.125 108.838,226.509 107.212,209.400 108.404 M287.319 153.587 C 287.202 154.035,286.892 154.257,286.561 154.130 C 285.942 153.892,285.878 153.584,286.247 152.623 C 286.597 151.710,287.579 152.594,287.319 153.587 M281.321 234.872 C 279.560 237.504,277.852 241.986,278.843 241.374 C 279.039 241.252,279.200 240.893,279.200 240.576 C 279.200 240.259,279.335 240.000,279.500 239.999 C 279.757 239.998,280.941 237.837,282.511 234.501 C 283.280 232.868,282.498 233.112,281.321 234.872 M329.061 243.937 L 329.984 246.473 329.194 248.819 C 327.463 253.957,325.848 255.176,324.295 252.516 C 322.739 249.852,322.920 247.452,325.010 243.013 L 326.887 239.027 327.512 240.213 C 327.856 240.866,328.553 242.541,329.061 243.937 M140.800 260.233 C 140.800 260.940,139.939 260.817,139.692 260.075 C 139.605 259.814,139.818 259.600,140.167 259.600 C 140.515 259.600,140.800 259.885,140.800 260.233 " stroke="none" fill="#8e9da5" fill-rule="evenodd"></path><path id="path3" d="M213.200 83.065 C 206.266 84.174,203.041 85.278,199.320 87.817 C 195.070 90.716,191.603 91.943,180.286 94.550 C 175.180 95.726,171.271 98.044,167.548 102.105 C 163.872 106.113,160.399 108.182,155.653 109.189 C 152.244 109.912,150.049 111.861,148.807 115.270 C 147.293 119.422,145.405 121.099,141.425 121.828 C 138.882 122.295,135.381 125.989,135.009 128.600 C 134.660 131.050,133.836 133.098,132.722 134.283 C 131.898 135.160,131.001 135.540,127.800 136.369 C 125.159 137.053,124.019 138.908,123.138 143.954 C 121.831 151.436,118.994 155.986,114.911 157.146 C 111.900 158.001,108.731 163.647,107.726 169.949 C 106.541 177.376,104.342 182.552,100.917 185.977 C 92.509 194.385,91.831 243.696,99.950 256.277 C 104.079 262.676,105.749 266.305,107.209 272.053 C 108.392 276.711,110.187 280.149,113.026 283.196 C 114.360 284.628,116.463 287.158,117.700 288.818 C 120.429 292.482,133.098 305.412,135.600 307.087 C 136.590 307.750,138.300 308.747,139.400 309.303 C 141.324 310.276,143.058 311.799,146.697 315.713 C 149.162 318.364,151.910 319.738,158.000 321.366 C 160.970 322.159,165.740 323.439,168.600 324.210 C 171.460 324.981,174.880 326.175,176.200 326.863 C 183.101 330.460,184.915 331.252,188.400 332.188 C 192.320 333.241,204.803 334.312,208.087 333.877 C 213.970 333.097,222.123 328.302,220.388 326.642 C 219.199 325.504,210.202 322.499,203.000 320.834 C 198.475 319.788,194.759 317.938,193.086 315.899 C 189.631 311.688,186.828 309.737,180.878 307.403 C 176.728 305.775,174.095 303.511,171.732 299.542 C 169.938 296.528,169.431 295.999,166.571 294.151 C 161.661 290.977,158.923 288.259,157.356 285.000 C 156.377 282.964,155.071 281.239,152.569 278.677 C 150.035 276.081,148.817 274.466,147.946 272.545 C 147.013 270.487,145.733 268.867,141.882 264.865 L 137.000 259.792 132.654 250.996 C 130.264 246.158,127.455 240.940,126.413 239.400 C 125.371 237.860,124.154 235.880,123.710 235.000 C 122.711 233.024,120.525 221.956,119.981 216.125 C 119.760 213.746,119.382 210.180,119.141 208.200 C 117.647 195.907,121.942 167.838,125.996 163.400 C 127.228 162.051,131.782 153.923,132.738 151.365 C 134.328 147.114,145.133 135.492,150.370 132.400 C 151.301 131.850,154.220 129.870,156.855 128.000 C 162.155 124.239,163.152 123.617,165.200 122.791 C 165.970 122.481,169.750 120.571,173.600 118.548 C 197.840 105.807,226.997 104.525,249.600 115.206 C 253.230 116.921,257.580 118.892,259.267 119.586 C 263.124 121.172,265.088 122.487,268.542 125.798 C 270.049 127.244,272.304 129.120,273.553 129.968 C 276.823 132.188,280.025 135.543,282.581 139.423 C 283.807 141.284,285.936 144.034,287.312 145.534 C 290.373 148.869,291.909 151.685,294.034 157.857 C 295.971 163.478,298.022 168.561,299.581 171.600 C 303.477 179.195,304.693 197.549,302.971 222.753 C 302.078 235.819,302.065 235.863,297.367 241.800 C 293.427 246.779,293.402 247.626,297.010 254.000 C 299.764 258.865,299.811 258.885,301.175 255.735 C 302.753 252.092,305.884 249.061,310.220 246.980 C 314.224 245.059,315.440 243.935,318.194 239.612 C 319.960 236.840,320.377 235.996,322.388 231.120 C 323.901 227.450,325.400 225.282,327.473 223.764 C 331.311 220.953,332.008 219.613,333.483 212.200 C 334.338 207.905,334.516 169.317,333.700 165.200 C 332.677 160.042,330.356 156.025,327.563 154.581 C 325.610 153.571,323.117 148.282,320.780 140.193 C 319.180 134.653,318.022 132.369,315.751 130.267 C 311.603 126.429,310.860 125.507,307.939 120.572 C 306.256 117.727,304.606 114.860,304.272 114.200 C 303.214 112.105,300.731 110.162,296.143 107.836 C 290.459 104.954,287.553 103.057,284.800 100.432 C 281.287 97.083,278.548 95.505,272.963 93.612 C 267.355 91.712,263.787 89.728,261.463 87.216 C 260.645 86.332,259.487 85.498,258.888 85.363 C 258.290 85.227,256.810 84.876,255.600 84.582 C 251.125 83.493,244.746 82.816,235.200 82.416 C 222.041 81.865,220.396 81.913,213.200 83.065 " stroke="none" fill="#383442" fill-rule="evenodd"></path><path id="path4" d="M181.325 44.822 C 177.984 44.987,175.090 45.221,174.893 45.342 C 174.697 45.464,173.291 45.757,171.768 45.995 C 168.414 46.518,166.400 47.133,166.400 47.635 C 166.400 47.840,165.860 48.572,165.200 49.263 C 164.540 49.954,164.000 50.762,164.000 51.059 C 164.000 51.357,163.853 51.600,163.674 51.600 C 163.162 51.600,161.600 54.773,161.600 55.814 C 161.600 56.330,161.420 56.864,161.200 57.000 C 160.980 57.136,160.800 57.665,160.800 58.175 C 160.800 59.486,160.222 59.809,156.600 60.518 C 152.634 61.295,141.914 60.626,140.518 59.515 C 140.252 59.304,139.868 59.234,139.664 59.361 C 139.459 59.487,138.079 59.762,136.597 59.972 C 133.891 60.355,132.000 61.465,132.000 62.670 C 132.000 62.961,131.820 63.200,131.600 63.200 C 131.380 63.200,131.200 64.160,131.200 65.333 C 131.200 66.507,131.080 67.587,130.934 67.733 C 130.787 67.880,130.607 69.096,130.534 70.437 C 130.374 73.383,130.366 73.397,128.276 74.463 C 126.228 75.508,116.964 75.340,114.713 74.216 C 112.924 73.324,110.800 74.225,110.800 75.877 C 110.800 76.111,110.521 76.534,110.180 76.816 C 109.396 77.467,108.000 80.501,108.000 81.554 C 108.000 81.994,107.820 82.464,107.600 82.600 C 107.380 82.736,107.197 83.422,107.194 84.124 C 107.185 85.935,106.766 86.403,104.403 87.235 C 103.254 87.640,101.748 88.399,101.057 88.922 C 100.366 89.445,99.266 90.005,98.614 90.166 C 96.385 90.716,93.909 92.061,93.708 92.831 C 93.597 93.254,93.281 93.600,93.006 93.600 C 92.465 93.600,92.011 95.661,92.004 98.155 C 92.001 99.417,91.690 100.046,90.359 101.491 C 89.456 102.471,88.205 104.401,87.580 105.780 C 86.539 108.075,84.878 109.600,83.418 109.600 C 79.073 109.600,75.630 115.274,74.987 123.495 C 74.580 128.698,74.000 129.342,69.542 129.535 C 66.181 129.682,64.800 130.243,64.800 131.462 C 64.800 131.758,64.620 132.000,64.400 132.000 C 64.177 132.000,63.994 133.109,63.987 134.500 C 63.980 135.875,63.819 138.170,63.629 139.600 C 62.253 149.966,61.806 152.583,60.913 155.505 C 60.030 158.391,59.769 158.838,58.851 159.037 C 55.977 159.660,53.200 161.448,53.200 162.675 C 53.200 162.964,53.063 163.200,52.896 163.200 C 51.458 163.200,50.682 174.598,51.574 182.600 C 51.819 184.800,52.191 194.880,52.400 205.000 C 52.938 231.006,54.129 237.812,58.512 239.920 C 59.107 240.206,59.789 240.805,60.027 241.251 C 60.591 242.304,66.610 260.794,67.237 263.400 C 67.987 266.513,69.420 269.011,71.911 271.549 C 73.170 272.832,74.768 274.943,75.463 276.241 C 76.158 277.538,77.365 279.680,78.146 281.000 C 78.927 282.320,80.274 284.750,81.140 286.400 C 82.547 289.081,85.645 292.800,86.471 292.800 C 86.948 292.800,92.136 299.913,93.432 302.344 C 94.501 304.350,98.165 308.000,99.110 308.000 C 99.770 308.000,103.890 312.714,105.801 315.655 C 107.552 318.350,108.910 319.486,113.400 322.012 C 116.929 323.997,120.443 326.677,121.440 328.144 C 122.241 329.324,124.405 331.061,126.545 332.243 C 129.306 333.769,133.821 335.849,136.600 336.877 C 140.487 338.315,143.861 340.193,144.414 341.227 C 145.089 342.487,148.823 345.029,151.610 346.126 C 154.270 347.173,154.897 347.303,165.400 348.992 C 170.820 349.863,177.459 351.490,179.150 352.360 C 179.508 352.544,180.514 352.824,181.386 352.982 C 182.259 353.139,183.469 353.525,184.076 353.839 C 186.037 354.853,192.475 356.406,197.400 357.052 C 211.879 358.952,230.031 357.027,237.137 352.837 C 238.179 352.223,240.014 351.400,241.215 351.009 C 242.417 350.618,244.120 349.984,245.000 349.601 C 246.506 348.944,252.689 347.681,261.800 346.167 C 268.611 345.035,273.469 343.680,274.831 342.532 C 275.179 342.239,275.629 342.000,275.831 342.000 C 276.148 341.999,277.851 340.647,280.000 338.689 C 282.117 336.760,289.695 332.800,291.270 332.800 C 291.435 332.800,292.971 332.155,294.685 331.367 C 296.398 330.578,298.250 329.727,298.800 329.475 C 299.350 329.223,300.970 327.841,302.400 326.403 C 306.355 322.428,307.981 321.323,313.200 319.066 C 315.199 318.202,317.613 315.907,319.996 312.605 C 321.854 310.031,323.226 308.658,325.784 306.812 C 329.994 303.773,330.623 303.013,333.460 297.553 C 335.269 294.072,336.383 292.493,338.611 290.255 C 342.001 286.851,344.000 284.323,344.000 283.442 C 344.000 283.089,344.180 282.800,344.400 282.800 C 344.620 282.800,344.800 282.462,344.800 282.049 C 344.800 281.636,345.070 281.074,345.400 280.800 C 345.730 280.526,346.000 280.071,346.000 279.788 C 346.000 279.506,346.540 278.071,347.200 276.600 C 347.860 275.129,348.400 273.766,348.400 273.570 C 348.400 272.750,351.293 268.841,353.410 266.800 C 357.990 262.385,358.666 260.723,361.213 247.600 C 361.917 243.970,362.653 240.829,362.847 240.620 C 363.041 240.411,363.200 239.770,363.200 239.195 C 363.200 238.620,363.560 237.405,364.000 236.494 C 364.440 235.584,364.800 234.648,364.800 234.414 C 364.800 234.180,364.959 233.677,365.153 233.295 C 365.348 232.913,365.689 232.150,365.912 231.600 C 366.135 231.050,366.861 229.430,367.526 228.000 C 371.780 218.844,373.202 211.664,373.190 199.400 C 373.178 186.416,372.598 180.487,370.608 173.000 C 370.550 172.780,370.367 172.015,370.201 171.300 C 370.035 170.585,369.713 170.000,369.483 170.000 C 369.254 170.000,369.178 169.888,369.315 169.752 C 369.452 169.615,368.592 167.590,367.404 165.252 C 364.883 160.286,363.832 156.465,362.981 149.167 C 361.819 139.197,361.618 137.994,360.602 134.969 C 359.389 131.355,357.479 128.255,354.599 125.226 C 351.774 122.255,350.012 119.101,348.214 113.800 C 345.947 107.118,343.017 103.132,339.566 102.037 C 337.771 101.467,336.395 100.018,335.000 97.228 C 334.403 96.034,333.663 94.806,333.357 94.500 C 333.051 94.194,332.800 93.749,332.800 93.511 C 332.800 92.899,330.729 88.705,330.113 88.071 C 329.831 87.781,329.600 87.302,329.600 87.007 C 329.600 86.193,327.370 84.488,324.644 83.219 C 323.300 82.594,321.677 81.614,321.038 81.041 C 320.399 80.468,319.727 80.000,319.545 80.000 C 319.103 80.000,317.368 76.520,317.030 74.957 C 316.458 72.307,313.410 70.000,310.483 70.000 C 307.728 70.000,302.647 68.722,301.800 67.816 C 300.720 66.661,300.000 65.352,300.000 64.543 C 300.000 63.939,299.924 63.944,299.200 64.600 C 298.500 65.233,298.400 65.832,298.400 69.382 C 298.400 75.861,297.387 76.811,290.497 76.786 C 285.389 76.768,280.741 74.615,279.636 71.754 C 278.722 69.388,278.184 68.897,275.657 68.118 C 274.415 67.735,272.463 66.832,271.319 66.111 C 269.037 64.673,263.694 62.233,261.800 61.764 C 259.162 61.111,257.571 60.093,256.383 58.300 C 254.617 55.634,252.794 54.945,242.800 53.168 C 231.753 51.204,229.158 50.636,223.800 49.015 C 221.380 48.283,218.140 47.458,216.600 47.182 C 215.060 46.905,212.540 46.337,211.000 45.920 C 208.985 45.373,205.844 45.058,199.800 44.794 C 190.540 44.391,190.053 44.391,181.325 44.822 M271.000 46.144 C 269.247 46.673,269.413 46.977,271.935 47.862 C 273.707 48.483,275.506 47.106,274.184 46.139 C 273.319 45.507,273.112 45.507,271.000 46.144 M285.361 57.468 C 283.364 59.218,283.267 60.991,285.065 62.868 C 286.201 64.053,295.200 64.703,295.200 63.600 C 295.200 63.380,295.524 63.200,295.920 63.200 C 297.401 63.200,298.248 60.989,297.100 60.119 C 296.511 59.672,292.555 58.400,291.754 58.400 C 291.449 58.400,291.200 58.240,291.200 58.045 C 291.200 57.715,290.378 57.478,287.398 56.949 C 286.570 56.802,285.937 56.963,285.361 57.468 M212.546 62.004 C 214.716 62.215,220.312 62.665,224.983 63.003 C 238.551 63.986,244.843 65.438,253.728 69.634 C 262.168 73.620,262.176 73.657,255.044 75.662 L 253.088 76.212 255.844 77.151 C 257.360 77.667,260.490 78.949,262.800 79.999 C 265.110 81.049,268.235 82.469,269.745 83.154 C 271.255 83.839,272.751 84.400,273.071 84.400 C 273.596 84.400,277.521 85.914,277.997 86.300 C 278.105 86.388,277.877 86.637,277.491 86.853 C 276.462 87.429,279.634 90.010,285.295 93.202 C 290.725 96.263,294.047 98.441,296.226 100.364 C 297.120 101.154,298.267 102.070,298.775 102.400 C 299.283 102.730,299.902 103.180,300.152 103.400 C 300.401 103.620,301.684 104.700,303.001 105.800 C 304.319 106.900,305.929 108.250,306.580 108.800 C 308.679 110.575,311.735 113.743,314.501 117.010 C 315.987 118.764,317.517 120.562,317.901 121.004 C 319.130 122.419,320.866 124.821,323.508 128.761 C 324.923 130.873,326.559 133.140,327.142 133.800 C 328.510 135.347,330.812 138.656,331.593 140.200 C 332.127 141.255,332.601 142.002,335.100 145.731 C 336.255 147.454,337.212 148.984,337.227 149.132 C 337.241 149.279,337.869 150.210,338.622 151.200 C 339.374 152.190,340.376 153.810,340.848 154.800 C 343.943 161.294,344.800 163.206,344.800 163.616 C 344.800 163.871,345.055 164.646,345.366 165.340 C 345.678 166.033,346.045 167.230,346.182 168.000 C 346.804 171.502,347.225 173.295,348.390 177.400 C 349.521 181.388,349.759 182.421,350.139 185.000 C 350.204 185.440,350.544 186.790,350.893 188.000 C 352.098 192.167,352.341 193.414,352.820 197.885 C 353.506 204.287,353.094 218.220,352.073 223.200 C 351.644 225.290,351.083 228.260,350.827 229.800 C 349.816 235.867,349.428 237.808,349.188 238.000 C 349.051 238.110,348.612 239.909,348.213 241.997 C 347.532 245.565,346.381 249.284,344.373 254.400 C 343.899 255.610,343.170 257.575,342.754 258.766 C 342.338 259.957,340.904 262.437,339.568 264.275 C 338.232 266.114,336.255 269.460,335.174 271.710 C 331.411 279.543,327.950 284.977,324.290 288.800 C 320.260 293.008,319.485 293.965,316.660 298.212 C 315.234 300.356,311.819 303.600,310.986 303.600 C 310.711 303.600,310.382 303.870,310.255 304.200 C 310.129 304.530,309.764 304.800,309.446 304.800 C 309.127 304.800,308.807 304.935,308.733 305.100 C 308.660 305.265,307.610 306.208,306.400 307.196 C 305.190 308.184,303.210 310.048,302.000 311.339 C 300.151 313.310,295.881 316.546,293.600 317.705 C 293.270 317.872,292.460 318.358,291.800 318.784 C 291.140 319.210,288.930 320.423,286.889 321.479 C 284.848 322.536,282.688 323.823,282.089 324.339 C 278.898 327.090,277.746 327.905,275.099 329.283 C 273.505 330.114,271.803 330.795,271.318 330.796 C 270.833 330.798,267.953 331.408,264.918 332.151 C 261.883 332.894,257.960 333.719,256.200 333.985 C 252.888 334.485,248.454 335.567,245.500 336.596 C 244.565 336.922,243.489 337.191,243.110 337.194 C 242.730 337.197,241.830 337.559,241.110 337.999 C 240.389 338.438,239.483 338.798,239.095 338.799 C 238.707 338.799,238.077 338.972,237.695 339.183 C 236.415 339.887,232.495 340.800,230.738 340.802 C 229.782 340.804,227.920 340.987,226.600 341.210 C 223.532 341.729,208.963 341.738,204.000 341.225 C 201.910 341.009,198.140 340.626,195.622 340.373 C 193.104 340.121,190.242 339.673,189.263 339.379 C 188.283 339.084,186.495 338.719,185.288 338.569 C 182.769 338.254,181.213 337.782,171.661 334.433 C 165.380 332.231,160.659 330.242,156.200 327.918 C 155.320 327.459,153.537 326.542,152.237 325.880 C 150.938 325.217,148.778 323.992,147.437 323.157 C 146.097 322.322,144.266 321.270,143.370 320.818 C 142.473 320.366,141.005 319.367,140.106 318.598 C 139.208 317.829,138.340 317.200,138.178 317.200 C 138.016 317.200,137.032 316.435,135.992 315.500 C 131.313 311.293,128.577 308.919,127.242 307.907 C 126.449 307.306,124.360 305.092,122.600 302.986 C 120.840 300.880,117.277 296.907,114.683 294.156 C 109.722 288.896,107.711 286.082,104.286 279.602 L 102.200 275.656 101.951 279.928 C 101.438 288.755,100.437 290.004,97.801 285.107 C 97.177 283.948,95.439 281.064,93.939 278.699 C 92.440 276.333,90.764 273.514,90.217 272.433 C 89.460 270.939,88.897 270.362,87.866 270.022 C 86.858 269.689,85.947 268.783,84.316 266.487 C 80.231 260.741,79.729 259.809,77.801 254.400 C 76.743 251.430,75.265 247.470,74.516 245.600 C 65.883 224.040,65.086 219.722,65.151 194.856 L 65.189 179.912 66.423 173.456 C 68.699 161.550,74.985 142.828,78.784 136.643 C 79.716 135.127,81.389 132.022,82.502 129.743 C 83.941 126.799,85.095 125.050,86.492 123.700 C 88.997 121.278,91.472 117.811,93.417 114.000 C 94.647 111.588,95.894 110.059,99.774 106.200 C 102.428 103.560,105.320 100.359,106.200 99.086 C 107.797 96.776,110.075 95.000,115.347 91.956 C 116.749 91.146,118.839 89.338,120.536 87.465 C 123.835 83.824,125.170 82.967,130.560 81.021 C 136.190 78.988,141.217 76.218,144.535 73.318 C 149.378 69.087,152.594 68.140,169.400 65.993 C 172.700 65.571,179.090 64.669,183.600 63.988 C 199.194 61.633,204.786 61.250,212.546 62.004 M300.869 79.462 C 301.666 80.184,301.877 81.019,301.148 80.568 C 300.874 80.398,300.769 80.507,300.881 80.844 C 300.983 81.150,301.322 81.400,301.633 81.400 C 301.945 81.400,302.262 81.850,302.338 82.400 C 302.414 82.950,302.660 83.623,302.883 83.895 C 303.107 84.167,303.186 84.660,303.059 84.990 C 302.932 85.320,303.025 85.548,303.264 85.495 C 304.020 85.330,304.067 86.286,303.316 86.553 C 298.780 88.165,298.524 87.787,299.408 80.800 C 299.478 80.250,299.571 79.710,299.615 79.600 C 299.659 79.490,299.673 79.265,299.647 79.100 C 299.569 78.604,300.092 78.759,300.869 79.462 M59.210 125.775 C 58.832 126.768,59.352 128.800,59.984 128.800 C 60.940 128.800,62.394 127.684,62.397 126.949 C 62.403 125.171,59.803 124.213,59.210 125.775 M286.247 152.623 C 285.878 153.584,285.942 153.892,286.561 154.130 C 287.301 154.414,287.676 152.961,287.005 152.404 C 286.630 152.093,286.428 152.151,286.247 152.623 M297.067 167.467 C 296.920 167.613,296.800 168.117,296.800 168.587 C 296.800 169.056,296.642 169.611,296.448 169.820 C 296.103 170.193,295.407 172.144,294.942 174.041 C 294.186 177.121,293.665 183.416,293.422 192.400 C 293.078 205.085,292.965 206.764,292.208 210.361 C 291.874 211.951,291.600 213.860,291.600 214.603 C 291.600 215.345,291.420 216.064,291.200 216.200 C 290.980 216.336,290.800 217.066,290.800 217.822 C 290.800 220.964,287.686 227.960,285.012 230.824 C 284.076 231.828,282.995 233.358,282.611 234.224 C 281.607 236.491,279.906 239.766,279.611 240.000 C 279.149 240.366,277.996 243.118,277.739 244.468 C 277.173 247.445,275.237 249.598,271.400 251.518 C 268.200 253.120,266.235 255.171,264.382 258.845 C 262.444 262.688,261.322 263.618,256.995 264.967 C 251.290 266.746,243.311 271.759,242.595 274.015 C 241.859 276.335,236.957 278.409,230.400 279.176 C 228.090 279.446,225.300 279.840,224.200 280.051 C 216.345 281.557,179.740 280.273,174.600 278.311 C 172.587 277.542,170.778 276.153,169.685 274.538 C 168.439 272.696,168.461 272.719,165.265 270.074 C 160.909 266.470,154.708 263.961,152.152 264.770 C 151.519 264.970,150.513 265.240,149.917 265.370 C 145.545 266.325,145.490 270.393,149.821 272.439 C 152.317 273.619,153.200 275.177,153.200 278.400 C 153.200 279.428,154.814 281.240,156.909 282.564 C 157.880 283.178,159.002 284.234,159.401 284.909 C 161.321 288.160,164.770 290.982,168.200 292.108 C 171.949 293.339,173.719 294.037,176.133 295.234 L 178.545 296.431 179.373 295.461 C 180.208 294.482,183.663 293.626,191.800 292.381 C 194.997 291.891,214.323 291.789,226.200 292.197 C 239.937 292.670,248.392 290.602,253.270 285.575 C 254.302 284.512,255.438 283.856,257.071 283.379 C 261.899 281.968,269.318 278.690,272.047 276.761 C 272.623 276.354,274.423 275.553,276.047 274.981 C 277.671 274.409,279.540 273.697,280.201 273.399 C 280.861 273.101,282.256 272.490,283.301 272.043 C 284.345 271.595,285.201 271.087,285.203 270.914 C 285.204 270.741,285.818 270.183,286.567 269.673 C 287.316 269.163,288.440 267.993,289.064 267.073 C 289.689 266.153,290.335 265.340,290.500 265.267 C 290.665 265.193,290.800 264.906,290.800 264.628 C 290.800 264.350,291.109 263.510,291.486 262.761 C 291.863 262.013,292.214 261.220,292.265 261.000 C 292.458 260.171,292.756 258.552,292.965 257.200 C 293.085 256.430,293.474 254.360,293.831 252.600 C 294.587 248.874,294.584 248.911,294.227 247.579 C 294.015 246.789,294.276 246.088,295.383 244.479 C 296.170 243.336,296.720 242.400,296.607 242.400 C 296.494 242.400,297.134 241.645,298.029 240.722 C 300.210 238.475,301.514 236.163,301.977 233.722 C 303.079 227.911,304.188 195.604,303.447 190.926 C 303.335 190.225,303.035 188.515,302.779 187.126 C 302.523 185.737,302.231 184.096,302.130 183.479 C 302.028 182.863,301.500 180.883,300.955 179.079 C 300.411 177.276,299.716 174.540,299.413 173.000 C 298.922 170.512,297.808 167.200,297.461 167.200 C 297.391 167.200,297.213 167.320,297.067 167.467 M91.646 259.200 C 91.563 265.129,92.806 267.735,95.900 268.115 C 98.089 268.384,98.212 268.836,94.546 263.138 C 93.604 261.675,92.571 259.875,92.249 259.138 L 91.665 257.800 91.646 259.200 M139.692 260.075 C 139.939 260.817,140.800 260.940,140.800 260.233 C 140.800 259.885,140.515 259.600,140.167 259.600 C 139.818 259.600,139.605 259.814,139.692 260.075 M114.360 299.040 C 115.119 300.005,115.136 300.180,114.589 301.489 C 114.265 302.264,114.000 302.966,114.000 303.049 C 114.000 303.581,112.840 303.008,111.719 301.922 C 110.165 300.415,110.082 299.793,111.300 298.777 C 112.539 297.744,113.398 297.817,114.360 299.040 " stroke="none" fill="#bb9871" fill-rule="evenodd"></path></g></svg>